<svg preserveAspectRatio="none" width="100%" height="100%" overflow="visible" style="display: block;" viewBox="0 0 19 19" fill="none" xmlns="http://www.w3.org/2000/svg">
<g id="CheckCircle">
<path id="Vector" d="M9.50004 1.78127C7.97342 1.78127 6.48108 2.23397 5.21173 3.08211C3.94239 3.93026 2.95306 5.13576 2.36885 6.54618C1.78463 7.9566 1.63178 9.50858 1.92961 11.0059C2.22744 12.5032 2.96257 13.8785 4.04206 14.958C5.12155 16.0375 6.4969 16.7726 7.99419 17.0705C9.49148 17.3683 11.0435 17.2154 12.4539 16.6312C13.8643 16.047 15.0698 15.0577 15.9179 13.7883C16.7661 12.519 17.2188 11.0266 17.2188 9.50002C17.2166 7.45354 16.4027 5.4915 14.9556 4.04443C13.5086 2.59735 11.5465 1.78343 9.50004 1.78127ZM12.8889 8.13885L8.73262 12.2951C8.67748 12.3503 8.61199 12.3941 8.53991 12.424C8.46783 12.4539 8.39057 12.4692 8.31254 12.4692C8.23451 12.4692 8.15725 12.4539 8.08517 12.424C8.01309 12.3941 7.94761 12.3503 7.89246 12.2951L6.11121 10.5138C5.9998 10.4024 5.93721 10.2513 5.93721 10.0938C5.93721 9.93621 5.9998 9.7851 6.11121 9.67369C6.22262 9.56228 6.37373 9.49969 6.53129 9.49969C6.68885 9.49969 6.83996 9.56228 6.95137 9.67369L8.31254 11.0356L12.0487 7.29869C12.1039 7.24352 12.1694 7.19977 12.2414 7.16991C12.3135 7.14005 12.3908 7.12469 12.4688 7.12469C12.5468 7.12469 12.6241 7.14005 12.6961 7.16991C12.7682 7.19977 12.8337 7.24352 12.8889 7.29869C12.944 7.35386 12.9878 7.41935 13.0176 7.49142C13.0475 7.5635 13.0629 7.64075 13.0629 7.71877C13.0629 7.79678 13.0475 7.87404 13.0176 7.94611C12.9878 8.01819 12.944 8.08368 12.8889 8.13885Z" fill="var(--fill-0, #BA4309)"/>
</g>
</svg>
