<svg preserveAspectRatio="none" width="100%" height="100%" overflow="visible" style="display: block;" viewBox="0 0 83.2435 83.243" fill="none" xmlns="http://www.w3.org/2000/svg">
<path id="Vector" fill-rule="evenodd" clip-rule="evenodd" d="M60.0615 0C72.8642 0.000149885 83.2434 10.3788 83.2435 23.1815L83.2416 23.4811C83.1479 30.88 79.5864 37.442 74.1093 41.621C79.6604 45.8563 83.2435 52.5399 83.2435 60.061L83.2416 60.3607C83.0811 73.0254 72.7642 83.2428 60.0615 83.243L59.7619 83.2411C52.3632 83.1473 45.8009 79.5862 41.622 74.1093C37.3866 79.6603 30.7026 83.2429 23.1815 83.243L22.8818 83.2411C10.2172 83.0805 7.73898e-05 72.7637 0 60.061C4.11592e-05 52.5405 3.58211 45.8573 9.13223 41.622C3.58171 37.3866 7.63667e-06 30.7023 0 23.1815C7.00685e-05 10.3787 10.3787 7.00776e-05 23.1815 0C30.7026 4.03379e-05 37.3861 3.58279 41.6215 9.13367C45.8568 3.58276 52.5404 4.1168e-05 60.0615 0ZM18.6642 46.9719C13.2366 48.8446 9.33768 53.9971 9.33763 60.061C9.3377 67.7067 15.5358 73.9052 23.1815 73.9054C29.5238 73.9053 34.8689 69.6397 36.5073 63.8212C36.5133 63.8224 36.5195 63.8234 36.5255 63.8246C27.8285 62.0864 20.8884 55.4832 18.6642 46.9719ZM63.598 46.6742C61.5421 54.9938 54.9941 61.5414 46.6747 63.598C48.2377 69.5303 53.6383 73.9053 60.0615 73.9054C67.7072 73.9052 73.9058 67.7067 73.9059 60.061C73.9058 53.6377 69.5306 48.2371 63.598 46.6742ZM41.0933 27.2504C33.4476 27.2505 27.2496 33.4486 27.2495 41.0943C27.2495 48.7401 33.4476 54.9386 41.0933 54.9386C48.7392 54.9386 54.9377 48.7401 54.9377 41.0943C54.9376 33.4485 48.7391 27.2505 41.0933 27.2504ZM64.2686 41.6225C64.2725 41.4469 64.2758 41.2708 64.2758 41.0943L64.2734 41.394C64.2724 41.4702 64.2703 41.5464 64.2686 41.6225ZM60.0615 9.33762C53.9972 9.33768 48.8444 13.2371 46.9719 18.6651C46.9635 18.6629 46.9549 18.6606 46.9464 18.6584C55.4854 20.8798 62.1083 27.847 63.8332 36.5751C63.8288 36.5524 63.8253 36.5295 63.8207 36.5068C69.6397 34.8687 73.9058 29.5241 73.9059 23.1815C73.9058 15.5358 67.7072 9.33777 60.0615 9.33762ZM36.1884 18.4338C34.2509 13.1266 29.1592 9.33768 23.1815 9.33762C15.5357 9.33769 9.3377 15.5357 9.33763 23.1815C9.33764 29.1593 13.1266 34.2509 18.4338 36.1883C20.3441 27.3232 27.323 20.3437 36.1884 18.4338Z" fill="var(--fill-0, #1D1A17)"/>
</svg>
