<svg xmlns="http://www.w3.org/2000/svg" width="1582" height="1582"><g fill="#00355f"><path fill-rule="evenodd" d="M706.9 5.1c140.3-15 284.6 8.1 412.8 67.3 139.5 63.9 259.6 169.5 341 299.5 72.8 115.5 114.5 250.1 119.9 386.4 5.7 134.6-23.7 270.6-85.1 390.6-60.7 119.2-152.2 222.4-263.1 297.3-103.1 69.8-223 114.7-346.7 129.4-138.3 16.8-280.9-3.6-408.6-59.4-130.4-56.5-244.9-149.1-327.8-264.5C70.8 1143 20.7 1014.1 5.8 880.9c-17.1-148.2 8.7-301.1 74.4-435 61.9-127.3 158.7-237.2 276.9-315.1C461.4 61.8 582.5 18.3 706.9 5.1M460 601.6c7.6 11 4.2 24.8 5 37.3-.8 9.7 2.7 21.4-6 28.7 6.3-.2 12.6-.1 18.9.1-7.6-10.5-4.1-24.1-4.8-36.1 5.6-.6 12.3-5 17.4-.3 4.8 9.2 2.5 20.2 3.4 30.2-1.9 1.3-5.8 3.9-7.8 5.2 6.8.4 13.7.7 20.5 1.2-9.1-11.6-1.5-27.6-8.2-40-7.3-6.5-17.3-2-25.5-.3l.4-25.3c-3.4-.2-10-.5-13.3-.7m-53.6 5.6-2.2 16.6c4.5-9.6 12.1-15.9 23.3-15.2.2 18.1.3 36.3-.3 54.4-2.7 1-8.3 3-11 4 9.9.1 19.9.1 29.9.6-2.2-1.4-6.7-4.3-8.9-5.7-2.3-17.3-.7-35-1-52.4 5.1.4 10.4.9 15.6 1.4 2.1 4.6 4.2 9.2 6.4 13.7-.1-5.7-.2-11.5-.3-17.3-17.2-.3-34.4-.7-51.5-.1m111.4 57.9c9.9 6.9 21.7 1.9 31.4-2.5-6.9.2-13.7 1.1-20.6.5-5.8-2.6-8.3-9-12.1-13.6 10.9-3.9 21.8-7.6 32.2-12.9-5.4-5.7-10.9-14.1-20-12.2-19.3 1.1-26.5 30.1-10.9 40.7m-340.6-24.8c.1 69 0 138 0 206.9q27.4.1 54.8 0v-89.3c35.1.1 70.2-.3 105.3.2-.1 29.7 0 59.4-.1 89.1H392v-207h-54.8v77.1H232v-77.1c-18.3 0-36.5 0-54.8.1M409.3 724c9.2 8.2 18.5 16.1 27.8 24.1 17.3-13.8 42.1-22.4 63.2-11.7 8.1 3.6 11.2 12.4 14.9 19.9-33.2 1.8-69.5-1-98.9 17.4-22.4 13.5-23.2 49.8-1.4 64.3 29.4 19.5 73 17.2 99-7.4-.1 4.1-.2 12.5-.3 16.6h48.3c-.7-31.2 1.7-62.5-1.4-93.6-1.9-21.8-16.9-42-38.5-47.4-37.7-9.8-80.3-4.7-112.7 17.8m214.3-.2c.3-6.3.5-12.6.7-18.8-17-.1-33.9 0-50.8 0v142.2h52.7c.8-28.4-1.9-57.1 1.4-85.5 2.9-20.7 29.7-26.4 45.8-17.5 8.8 5.5 10.5 16.8 10.9 26.4.5 25.5-.1 51.1.1 76.6h52.7c-.3-29.7.5-59.4-.5-89.1-.7-17.6-5.9-37.3-21.9-47.1-28.5-15.7-69.1-13-91.1 12.8m193.9-20.2c-21.9 3.9-43.6 14-57.4 32-17.6 22.3-18.1 56.2-1.4 79.2 15 21.1 40.7 32.1 65.8 35 29 3.4 60.3-1.8 83.8-19.9 32.3-22.9 35.9-74.7 6.7-101.5-25.3-24.6-63.7-30.5-97.5-24.8m288.5 41.1c-15.1 27.4-7.5 64.8 17.4 83.9 40.4 31.4 103.8 29.7 141.4-5.6-12.2-7.6-24.4-15-36.5-22.7-13.4 12.8-32.5 20.9-51 15.2-13.3-2.6-21.8-13.9-27.6-25.3 41-.5 81.9-.1 122.8-.2.3-22.3-1.8-46.8-17.7-64-19.1-21.7-50.5-27-77.9-23.5-28 3-57.1 16.5-70.9 42.2m253.5-38.3c-10.1 4.2-17.1 13-24.6 20.8q.2-11.2.4-22.2h-52.5c-.1 47.4 0 94.8-.1 142.2h52.5c.2-22.8-.6-45.7.4-68.5.5-12 3.6-25.9 14.9-32.2 15.8-8.8 34.7-6.2 51.8-3.6-.1-13.5-.1-27.1-.2-40.6-14.3-.6-29.3-2.1-42.6 4.1M919.6 705l70.2 142.2h55.7q33.6-71.1 67.1-142.2c-17.7 0-35.4-.1-53.1 0-13.3 32.3-26.4 64.6-40 96.8-14.3-32.3-28.6-64.7-43.1-96.9-18.9.1-37.8 0-56.8.1m86.8 161.8c-29.8 15.7-29.2 67.6 2.4 80.9 19.8 8.7 41.8 4.4 61.8-1-1.3-1.7-4-4.9-5.4-6.6.2-3.6.5-11 .7-14.6 3.2-1.6 6.4-3.2 9.7-4.8-13.4-.4-26.8-.5-40.1.5 5.4 1.8 10.8 3.3 16.3 4.9.5 7 .8 14 1.1 21-12.9.9-27.5 2.7-38.2-6-16.5-13.5-18.9-38.8-11.5-57.7 7.1-16.6 28.4-22.7 44.5-16.6 8.5 4.2 11.6 14.1 17.2 21.2-.5-7.9-1.2-15.7-2-23.6-18.3-5.3-39.2-7.3-56.5 2.4M379.9 862c4.2 1.8 8.5 3.6 12.8 5.5.2 26 .9 52.1-.5 78.1 2.1 0-15.9 2.2-9.2 4.9 11.7.7 23.5.2 35.2.9-4.1-2.4-8.1-5-11.9-7.7-1-23.4-.6-46.9-.3-70.4-1.3-7.3 8-8.3 12-12.2-12.7.9-25.4.8-38.1.9m984.6 13.6c-2.3 8.3-6.6 17.3-2.5 25.8 5.5 14.8 28.8 18.8 37.9 5.5 5.4-7.4 3.1-17.2 3.9-25.8-6.8-5.3-14.4-9.6-22.4-12.7-5.6 2.4-11.3 4.8-16.9 7.2m-856.7 26.5c-5.4 23.3 40 19.9 27 43.5-13.7 9.2-21.8-8.9-28.6-17.6.6 7.4 1.5 14.9 2.6 22.3 10 1.5 21 4.6 30.6-.2 10.5-4.4 13.6-20.1 5.5-28-7.8-6.4-17.8-9.5-25-16.6-.7-6.1.5-13 7.7-13.8 9.9 1.2 12.4 12.2 17.4 19-.1-7.2-.7-14.3-1.5-21.4-12.6-2.8-32.8-3.8-35.7 12.8m46.6-9.6q5.1 2.2 10.3 4.3c.5 15.4-1.5 31.1 2 46.3 4.7 12.3 20.9 8.7 31.2 9.5.4-1.6 1.3-4.9 1.7-6.5-7.2-.6-17.9 1.1-21.1-7.6-3.3-17-1-34.5-1.8-51.6q-11.2 2.6-22.3 5.6m43.6-1 1.8 1.7 5.6 3.9c2.5 15.2.8 30.7 1.1 46l-7.8-.5c4.7 3.5 9.5 6.8 14.2 10.2 5.7-1.7 11.5-3.4 17.2-5.1-2.6-1.2-7.9-3.4-10.5-4.6-2-18.6-.6-37.4-.8-56.1q-10.4 2.3-20.8 4.5m59.9.8c-6.1-7.6-15.6-1.3-23.3-1.1 2.4 1.4 7.3 4.2 9.7 5.6-.3 15.8 2.2 32.3-1.3 47.8-2.4 1.6-7.2 4.9-9.6 6.5 12.1-.5 24.2-.3 36.3.3-4.3-2.6-8.5-5.3-12.7-8.1-1.3-15.7-.6-31.5.2-47.3 6.2 1 12.4 2 18.6 3.1q2.7-5.1 5.5-10.1c-8.1-1.6-16.2-.9-23.4 3.3m86.9.8c2.8.8 8.5 2.6 11.3 3.4 1.5 15.9.6 31.9.7 47.8q-5.9 3.3-11.7 6.6c11.9-.1 23.8-.1 35.8 0-2.9-1.5-8.7-4.4-11.6-5.9-.3-14.6-1.1-29.2.1-43.8 5.3-9.8 23-10 27.1 1 3.3 13.8 1.6 28.1 1.9 42.1-3 1.6-9.1 4.6-12.1 6.2 11.7.2 23.4.3 35 1-24-11.6.1-45.5-18.8-61.1-10.9-6.4-23.2-1.1-33.7 3.1l-.4-6.8c-7.9 2-15.7 4.3-23.6 6.4m104.1-3.1c-19.8 7-27.7 35-15.5 51.7 12.3 14.7 35.3 13.5 50.3 3.7-12.2.6-27.4 5.8-36.3-5.6-8.7-11.9-11-32.2 1-42.7 8.8-7 19.3-.3 27.7 3.7.6-2.9 1.6-8.6 2.2-11.5-9.7-1.1-20.1-3.4-29.4.7m46.6 56c13.7 11 33.6 7.4 46.8-2.4-10.4.1-21.7 5.1-31.5-.3-8-3.9-10.6-12.9-14.5-20.2 15.4-4.4 30.8-8.9 45.2-15.9-4.9-10.9-14-22.3-27.5-19.7-27.7 1-39.2 41.6-18.5 58.5m183.8-53.2c2.5 1 7.5 3.2 10 4.2 1.2 15.4.9 30.9.3 46.3-2.7 1.9-8.1 5.9-10.7 7.8 12.5-.5 24.9-.2 37.5-.2l-14-6q-.9-24 0-48c9.4 1.5 19.7 3.4 25.6-6.2-9.3-4.4-18.7-2.6-27.1 2.9l-.5-6.9c-7.1 2-14.1 4-21.1 6.1m75.2-4.5c-23.9 4.1-32.8 36.6-17.8 54.3 11.1 12.1 31.2 13.3 44.7 4.5 13.7-9.1 16.8-29.1 10.2-43.5-6.4-13.5-23.4-18.4-37.1-15.3m88.1 4.6c2.5 1 7.6 3 10.2 3.9.9 15.5 3.6 32.3-2.1 47 2.6 3.1 5.3 6 8.1 9.2 6.1-1.8 12.2-3.5 18.4-5.3-2.6-1.1-7.8-3.3-10.3-4.4-2.6-18.8-.8-37.7-1.5-56.6-7.6 2-15.2 4.1-22.8 6.2m-817.7-.6c2.5 1.2 7.5 3.4 10 4.5 1.9 15.8.7 31.7.8 47.5-3.9 2.3-7.8 4.5-11.6 6.7 11.9-.2 23.8-.2 35.7-.4-2.9-1.5-8.8-4.6-11.8-6.1.2-19-.5-38-1-56.9-7.4 1.4-14.7 3.1-22.1 4.7m51.5 14c-.3 15 8.3 38.1-10.4 44.8q17.3-.7 34.6.1c-2.5-1.7-7.3-5.1-9.7-6.7-4.6-16.1 2-34.1-5.1-49.8-8-11.5-24.1-5.9-35.3-4.6 8.6 5.8 25.2 2.6 25.9 16.2m209.7 2.2c7.3-5 12.6-16.5 23.1-14.4 9.2.9 8.9 11.5 11.3 18.2-10.7 4.3-23 6.6-31.5 15.1-5.9 5.8-7.2 17.3.5 22.2 9.1 6.2 20.2 1.5 29.9-.2 7.9 3.1 16.3 3 24.6 2.1-2.9-1.6-8.6-4.9-11.4-6.5-2.8-16.6 1-34.1-3.9-50.4-11.2-14.8-43.1-5.9-42.6 13.9m514.8-15.6c2.5.9 7.6 2.9 10.1 3.9 2.4 15.3-1.2 31.3 2.8 46.4 5 12.3 20.8 8.5 31.1 9.6 1.4-1.8 4.1-5.6 5.4-7.5-8.4.5-22.5 3-25.2-8.3-2.5-16.6-.6-33.6-1.2-50.3-7.7 2-15.4 4.1-23 6.2m79-1.9c2.5 1.5 7.6 4.4 10.1 5.9 0 24.9 1 49.8-.3 74.7-2.6 2.2-7.8 6.6-10.5 8.8 11.7-.1 23.3-.1 35-.3-2.9-1.5-8.8-4.6-11.7-6.1-.2-7.2-.3-14.3-.5-21.4 11.4 0 24 .5 33.7-6.7 17.7-11.9 19.5-43.6 0-54.6-9.6-6-21.1-2.8-31.6-1.9-8.1-1.4-16.2.5-24.2 1.6"/><path d="M516.5 644.1q2.7-8.7 7.6-16.1c7.8-2.2 11.4 4.8 15.6 9.8-7.7 2.4-15.4 4.5-23.2 6.3M1149.4 759.5c7-24.1 38.3-33.5 58.7-20.1 7.3 4.3 9.6 13 13.1 20.2-23.9.5-47.9.5-71.8-.1M821.2 743.7c16.5-5.5 37.1-4.8 50.7 7.2 16.6 14.9 13.2 46.2-7.5 55.8-17.3 8.1-40.3 7.4-55.1-5.5-17.6-16.2-11.5-50 11.9-57.5M462.6 790.3c16.5-6.2 34.7-5 52-5.1-1.5 8.6-.7 19-8.1 25.1-10.9 9.3-26.5 11.7-40.3 9.6-6.8-1.3-15.2-4.9-16.6-12.6-1.7-8.3 5.9-14.8 13-17M1376.9 879.1c.5-2.2 1.3-6.5 1.7-8.7 7.3 4.2 17.5 6.4 20.8 15.1 3.3 7.8-1.8 15.5-3.8 22.9-2.2-3.2-6.7-9.7-8.9-12.9 1.4-1.2 4.3-3.8 5.7-5.1.3-2 .7-6 1-7.9q-8.2-2-16.5-3.4M1364.5 882.8q4.5-2.5 9.1-4.6c.7 10.3.3 20.6 1.2 30.9 1.3-4.4 3.8-13.1 5.1-17.5 4.5 6.8 9.3 13.3 14.4 19.7-8-1.3-18 1.8-24.1-4.9-6.9-5.8-4.9-15.8-5.7-23.6"/><path d="M1379.7 884.8c12.5-6.3.4 14 0 0M896.3 916.3c2.9-8.5 3.3-20.9 13.8-23.9 10.5-2.2 14.7 8.4 18.7 15.8-10.7 3.2-21.6 5.9-32.5 8.1M1153.4 894.1c11.7-5.8 25.5 3.2 27.4 15.4 3.7 13.6 1.9 36-15.5 38.3-26.5.6-31-41.3-11.9-53.7M1302.6 895.2c7.5-.3 16-2.5 22.9 2 14.4 9.1 14.2 30.7 5.7 43.9-6.6 9.6-19.3 6.1-28.7 3.9-.3-16.6-.4-33.2.1-49.8M697 938.6c-2.8-13.5 12.1-17.5 21.9-20.2q.5 13.2.5 26.6c-7.9 2.6-20.6 4.8-22.4-6.4"/><path d="M125.4 540.4h1327.1v505.3H125.4z"/></g><path fill="#fff" fill-rule="evenodd" d="M338.4 846.8v-89.2H233v89.2h-54.2V640.6H233v77h105.4v-77h54.3v206.2zm61.4-40.1c0-48.9 70.8-49.9 114.2-49.9 0-15.4-15.2-25.3-33.2-25.3-15.7-.1-30.8 6-42.1 16.9l-27.9-23.8c21.7-15.5 47.8-23.5 74.4-22.8 60.9 0 77.2 26 77.2 73.1v71.9h-48v-17.7h-.6c-11.5 15-32.3 21.2-53.6 21.2-31.2 0-60.2-15.1-60.4-43.6m50.3-1.1c0 10.4 13.1 15.3 24.6 15.3 20.6 0 39.7-8.9 39.7-26.4v-9.8h-12.9c-15.9 0-51.3 1.4-51.4 20.9m176.4 41.2h-52.2V705.2h50.2v19.3h.6c11.6-15.4 30.2-24 49.4-22.8 52.9 0 62.6 29.3 62.6 67.1v78h-52.2v-69.3c0-16.4 0-37.3-27.2-37.3-27.1 0-31.3 17.7-31.3 36.1.1 0 .1 70.5.1 70.5m214.1 3.5c-51.9 0-93.9-33.2-93.9-74.3 0-41 42-74.3 93.9-74.3 52 0 94 33.3 94 74.3 0 41.1-42 74.3-94 74.3m42.2-74.3c0-19.8-18.7-35.8-41.9-35.8s-42 16-42 35.8 18.8 35.8 42 35.8 41.9-16 41.9-35.8m106.7 70.8-69.9-141.6h56.3l42.9 96.2h.6l39.6-96.2h52.5l-66.7 141.6zm108.1-71.1c0-45.1 41.8-74.3 93.9-74.3 48.7 0 79.3 29.2 79.3 74.3v13.8h-121c4.9 17.2 21.3 28.6 39.3 27.3 14.3.4 28-5.9 37.2-16.8l36.6 22.3c-19.1 18.4-44.8 28.6-71.4 28-52.1 0-93.9-29.4-93.9-74.6m52.3-15.7h68.8c.4-14.5-13.3-26.8-32.1-26.8-22.8 0-35.4 13.1-36.7 26.8m183.9 86.8h-52.2V705.2h52.2v22.7h.6c10.1-17.1 28.9-27.2 48.7-26.2 5.9 0 11.8.5 17.5 1.6v39.9q-11-2.9-22.3-3c-39.6 0-44.5 19.3-44.5 47.5zm-949.7 15.1h32.5v2.9l-4.8.4c-5.2.6-5.2 1.2-5.2 17.5v46.5c0 16.3 0 17 5.2 17.5h4.8v3h-32.5v-3h4.7c5.3-.6 5.3-1.2 5.3-17.5v-46.8c0-16.3 0-16.9-5.3-17.5l-4.7-.4zm112.1 84.6h3v3.1h-29.9v-3.1h3.2c4.6-.5 5.9-1.3 5.9-9.7v-18c0-12.2 0-25.2-16-25.2-5.4 0-10.6 2.6-13.8 7.1v36.4c0 8.5 1.1 9.2 6 9.7h3.1v3h-29.9v-3h3.1c4.7-.5 6-1.3 6-9.7v-26c0-13.2 0-16.9-3.8-16.9h-1.8l-3 .8-.6-3.1c6.7-2.3 13.7-3.9 20.8-4.8v8.5c5.5-5.3 12.9-8.3 20.5-8.5 21 0 21 14.6 21 29.8v20c0 8.6 1 9.3 6.2 9.6m53.7-13.2c0 12.7-10.5 18.7-23.2 18.7-5.8.1-11.5-1.3-16.8-3.9-1.8-5.8-2.7-11.8-2.5-17.9h3.5c2.7 9 7.2 17.4 18 17.4 5.4-.1 9.6-4.6 9.4-9.9 0-18.3-29.7-11.9-29.7-33.7 0-10.8 9.8-16.9 21.5-16.9 4.9 0 9.7 1.2 13.9 3.7 1.3 5.4 1.9 10.9 1.7 16.2h-4.2c0-5.9-4.5-15.6-12.9-15.6-.4 0-.8 0-1.2.1-4.6.5-7.9 4.8-7.3 9.4 0 15.3 29.7 10.9 29.8 32.4m78.3 11.4.8 2.9c-5.8 2.1-11.9 3.6-17.9 4.5-1.5-1.9-2.5-4.2-3.1-6.5-5.9 4.2-13.2 6.5-20.6 6.5-19.9 0-21.7-9.4-21.7-24v-16.9c0-13 0-16.8-3.8-16.8h-1.8l-3 .7-.6-3.1c6.7-2.3 13.7-3.8 20.8-4.9v40.4c0 10.8 2.8 18.5 16.1 18.5 4.9.1 9.8-1.4 13.9-4.2v-30.5c0-13 0-16.8-3.7-16.8h-1.9l-3 .7-.6-3.2c6.9-2.2 13.8-3.8 20.9-4.8v40.7c0 11.4 0 16.9 3.7 16.9h2.1zm42.4-56.9c3.7.4 7.2 1.8 10.1 4.1-1.6 2.9-3.9 5.6-6.7 7.6-3.5-1.4-7.3-2.4-11-3.1-3.2-.1-6.1 2.1-6.4 5.3v35.9c0 9.2 1.3 9.2 8.4 9.8h3v3h-32.1v-3h3.3c4.6-.6 5.8-.6 5.8-9.8v-26.1c0-14 0-16.8-3.7-16.8-1.2 0-2.2.3-3.2.7h-1.3l-1-3.2c6.3-2.4 12.8-4.1 19.4-5 .7 2.8.9 5.6.9 8.4 3.6-4.3 8.8-7 14.5-7.8m70.7 59.3.6 1.9c-3 2.2-6.6 3.4-10.3 3.4-4.3.7-8.7-1.6-10.6-5.7-5.7 4.1-12.6 6-19.6 5.7-10.2 0-16.9-5.7-16.9-13 0-17.7 23.3-22.7 35-26.1v-3.1c0-9.2-1.4-16.8-12.4-16.8s-14.2 8.4-16.9 13.4h-.9c-1.6-1.5-2.9-3.4-3.6-5.5 6.2-8.7 16.2-14 26.9-14.3 15.4 0 18.5 8 18.5 21.7v19.2c0 9.3 0 19.4 7.4 19.4.9.2 1.9.2 2.8-.2m-21.8-27.9h-1.8c-7.7 0-20.8 3.2-20.8 15.9q-.1 1 0 1.9c.5 6.3 6.2 10.9 12.4 10.3 4.1 0 7.9-2.1 10.2-5.5zm96.9 27.4h2.9v3h-29.7v-3h3.1c4.7-.5 5.9-1.3 5.9-9.8v-18c0-12.2 0-25.2-15.9-25.2-5.6 0-10.7 2.6-13.9 7.2v36.3c0 8.6 1.1 9.2 6 9.8h3.1v2.9h-30v-2.9h3.3c4.6-.6 5.9-1.4 5.9-9.8v-26c0-13.1 0-16.9-3.8-16.9h-1.8l-3 .9-.7-3.2c6.9-2.3 13.8-3.8 20.9-4.8v8.5c5.5-5.2 12.8-8.2 20.5-8.5 20.9 0 20.9 14.6 20.9 29.9v19.9c0 8.6 1.1 9.3 6.3 9.7m62.6-3.3 1.1 3.2c-6.3 4-13.8 6-21.2 5.7-15.2 0-31.2-9.1-31.2-28.4-.1-1.3-.1-2.5-.1-3.8.5-18.6 16-33.3 34.5-32.9a27 27 0 0 1 15.5 3.9c-.2 3.5-1.4 6.9-3.4 9.8h-.8c-3.7-4.8-9.5-7.6-15.7-7.4-9.6 0-17.6 7.6-17.6 22.8 0 21 10.8 31.1 26 31.1 4.5-.4 9-1.7 12.9-4m60.1-35.8c-13.4 6.3-27.5 11.1-42.2 14.2.7 13.6 11.8 24.2 25.3 24.2 5.4 0 10.5-1.5 15.2-4.3l1.6 3.1c-6.8 5-15 7.6-23.5 7.5h-2.8c-16-.6-28.4-14.2-27.8-30.2 0-.7-.1-1.3-.1-1.9-.5-17.7 13.5-32.4 31.2-32.8 11.8-.5 21.9 8.4 23.1 20.2m-42 8.2c10.3-1.9 20.3-4.4 30.3-7.4-1.8-7.9-4-16.3-15.4-16.3s-14.8 13.9-14.9 23.7m141.3 5.2h33.7v3h-4.8c-2.5.5-2.5 1.2-2.5 14.1 0 4.1 0 4.8 2.1 4.8h1.4l.9 3c-10.9 4-22.3 6.3-33.7 6.7-27.1 0-51.2-12.3-51.2-45.9 0-35.9 28.9-46.6 50-46.6 9.4-.4 18.8 1.5 27.3 5.4 1.5 6.7 2.2 13.2 2.2 20l-3.6.7c0-.4-.1-.7-.1-1.1-1.4-12.9-13.1-22.1-25.9-20.6-21.8 0-35.7 14.2-35.7 39.4 0 22.9 11.7 44.1 37.9 44.1 5.3 0 10.5-.6 15.8-1.8v-5.7c0-16.3 0-16.9-9.5-17.5h-4.8zm76.5-33.1c3.7.4 7.3 1.9 10.2 4.1-1.7 3-4 5.6-6.8 7.5-3.6-1.3-7.2-2.3-11-2.9-3.2-.2-6 2.1-6.5 5.3v35.8c0 9.3 1.4 9.3 8.4 9.7h3.2v3.1h-32.1v-3.1h3.2c4.6-.4 5.8-.4 5.8-9.7v-26c0-14 0-16.9-3.8-16.9-1.1.1-2.2.3-3.1.7h-1.3l-1-3.2c6.3-2.4 12.8-4.2 19.5-5 .6 2.8.9 5.7.9 8.5 3.6-4.4 8.7-7.1 14.4-7.9m13.8 31.9c0-18 14.5-32.5 32.5-32.5s32.5 14.5 32.5 32.5v.3c0 18-14.5 32.6-32.5 32.6s-32.5-14.6-32.5-32.6zm34.2 27.7v-.1c12.2 0 18.4-11.7 18.4-25.7 0-15.9-5.9-29.7-21.7-29.7-13.9 0-18.7 14.5-18.7 27.3 0 14.8 6.9 28.2 22 28.2m110.7-2.8.7 3c-5.8 2-11.9 3.5-18 4.6-1.4-2-2.4-4.3-2.9-6.7-6 4.3-13.3 6.7-20.7 6.7-19.9 0-21.6-9.6-21.6-24.2v-16.7c0-13.1 0-16.9-3.9-16.9h-1.7l-3.1.7-.5-3.2q10.2-3.3 20.7-4.8v40.4c0 10.7 2.8 18.5 16.2 18.5 4.9.1 9.8-1.4 13.9-4.3v-30.4c0-13 0-16.8-3.7-16.8h-2l-2.9.7-.6-3.2c6.8-2.3 13.8-3.9 20.9-4.7v40.6c0 11.4 0 16.8 3.7 16.8q1.1.2 2.1 0zm48.9-57.4c15.3 1.2 26.8 14.5 25.6 29.8.2 1.1.2 2.3 0 3.4-1 18.9-17.3 33.4-36.2 32.4-3.8 0-7.5-.5-11-1.4v15.7c0 8.3 1.1 9.2 6 9.8h3.1v2.9h-29.9v-3.5h3.2c4.7-.5 5.9-1.3 5.9-9.8v-55.3c0-13.2 0-16.9-3.8-16.9h-1.8l-3 .8-.6-3.2c6.2-2.3 12.6-3.8 19.2-4.7.9 1.7 1.5 3.6 1.6 5.7 5.2-3.6 11.5-5.6 18-5.7zm-6.8 60.1c13.3 0 20-11 20-28v-2.9c-.2-12.8-10.9-23.1-23.7-22.8-4 0-7.8 1-11.2 2.9v46.1c4.1 3.5 9.4 5.2 14.8 4.8.1 0 .1-.1.1-.1M407 621.9v-4c0-3.4.3-6.8.9-10.3h50.5c.6 3.3.9 6.9.9 10.3v4h-2.1c-2-10.4-2.2-11.8-15-11.8h-4.7v43c0 11.1 0 11.9 5.2 11.9h3.1v2h-25.3v-2h3.5c5-.3 5-.8 5-11.9v-43h-5.2c-12.9 0-13.1 1.4-15.1 11.8zm72.7 45.5h-19.8v-2h2.2c3.1-.4 4-1.1 4-6.6v-42.1c0-7.2 0-11.3-3.3-11.3h-3.4v-2c4.7-.8 9.3-1.3 14-1.5v28c3.9-3.5 9-5.4 14.2-5.3 13.3 0 14.4 8.4 14.4 18.3v16.2c0 5.5.8 6.6 4.1 6.6h2.1v1.9H488v-2h2.1c3.2-.3 4.1-1.1 4.1-6.6v-16.9c0-7.4-3.1-12.9-10.8-12.9-3.7.3-7.3 1.9-10 4.7v24.8c0 5.5.8 6.6 4.2 6.6h2.1zm49.5 1.2c-10.9-.4-19.4-9.5-19-20.4-.1-.4-.1-.9-.1-1.4-.3-11.9 9.1-21.8 21-22.1 8.2-.3 15.2 5.7 16 13.7-9.2 4.3-18.6 7.5-28.4 9.7.2 9.1 7.8 16.3 16.8 16.3 3.6-.1 7.2-1.1 10.2-2.9l1.1 2c-4.6 3.5-10.2 5.3-15.9 5.1-.6.2-1.2.2-1.7 0m-10.7-24.4c7-1.2 13.8-3.1 20.5-5.3-1.2-5.6-3.5-10.9-10.4-10.9-7.7 0-10.1 9.5-10.1 16.2m862.8 225.6c12.2.1 22 10.1 21.8 22.2v.1c0 12.2-10 22.2-22.2 22.1-12.3-.1-22.2-10-22.1-22.3 0-12.2 10-22.1 22.3-22.1zm.3 41c10.1-.3 18-8.8 17.7-18.9v-.8c-.5-10.5-9.2-18.6-19.8-18.2-10.5.5-18.7 9.2-18.2 19.7.4 10.5 9.3 18.7 19.8 18.2zm10-23.8c-.1 3.7-3.2 6.6-6.8 6.3l7.4 11.6h-4.2l-7.1-11.2h-4.2v11.2h-4.1V879h9.8c6.1 0 9.1 2.4 9.1 7.4 0 .3 0 .4.1.6m-3.9-.9c0-3.5-3.1-4-5.8-4h-5.4v8.4h4.1c3.5 0 7.1-.8 7.1-4.4m-490.6 29.8v-.2zm266 31.6h-.1z"/></svg>