<svg width="154" height="36" viewBox="0 0 154 36" fill="none" xmlns="http://www.w3.org/2000/svg">
<path fill-rule="evenodd" clip-rule="evenodd" d="M24.6305 0C29.8807 6.14661e-05 34.1371 4.25621 34.1372 9.50645L34.1364 9.62934C34.0979 12.6635 32.6374 15.3545 30.3914 17.0683C32.6678 18.8051 34.1371 21.546 34.1372 24.6303L34.1364 24.7532C34.0706 29.9468 29.8397 34.1369 24.6305 34.137L24.5076 34.1362C21.4735 34.0977 18.7824 32.6374 17.0687 30.3914C15.3318 32.6677 12.5908 34.1369 9.50645 34.137L9.38355 34.1362C4.18996 34.0703 3.17366e-05 29.8395 0 24.6303C1.68789e-05 21.5462 1.46898 18.8055 3.74502 17.0687C1.46882 15.3318 3.13171e-06 12.5907 0 9.50645C2.87342e-05 4.25619 4.25619 2.8738e-05 9.50645 0C12.5908 1.65421e-05 15.3316 1.46926 17.0685 3.74561C18.8053 1.46925 21.5462 1.68825e-05 24.6305 0ZM7.65396 19.2626C5.42816 20.0306 3.82927 22.1436 3.82925 24.6303C3.82928 27.7657 6.37104 30.3077 9.50645 30.3077C12.1074 30.3077 14.2993 28.5584 14.9712 26.1723L14.9787 26.1737C11.4121 25.4609 8.56608 22.753 7.65396 19.2626ZM26.0808 19.1405C25.2377 22.5523 22.5524 25.2374 19.1407 26.0808C19.7817 28.5136 21.9964 30.3077 24.6305 30.3077C27.7659 30.3077 30.3079 27.7657 30.3079 24.6303C30.3079 21.9962 28.5136 19.7815 26.0808 19.1405ZM16.8519 11.1751C13.7165 11.1751 11.1747 13.7169 11.1747 16.8523C11.1747 19.9877 13.7164 22.5296 16.8519 22.5297C19.9874 22.5297 22.5293 19.9877 22.5293 16.8523C22.5292 13.7168 19.9873 11.1751 16.8519 11.1751ZM26.3558 17.0689C26.3574 16.9969 26.3587 16.9247 26.3587 16.8523L26.3577 16.9752C26.3573 17.0064 26.3565 17.0377 26.3558 17.0689ZM24.6305 3.82925C22.1436 3.82927 20.0305 5.42836 19.2626 7.65435C19.2592 7.65345 19.2556 7.6525 19.2522 7.65159C22.7539 8.56256 25.4699 11.4197 26.1772 14.999C26.1754 14.9897 26.174 14.9803 26.1721 14.971C28.5584 14.2993 30.3079 12.1075 30.3079 9.50645C30.3079 6.37104 27.7659 3.82931 24.6305 3.82925ZM14.8404 7.55947C14.0459 5.38307 11.9578 3.82927 9.50645 3.82925C6.37102 3.82928 3.82928 6.37102 3.82925 9.50645C3.82925 11.9579 5.38306 14.0459 7.55947 14.8404C8.34288 11.2049 11.2048 8.34269 14.8404 7.55947Z" fill="#1e1a15"/>
<path d="M105.056 35.9752V12.2822H108.509V14.7096H109.056C109.489 13.9575 110.139 13.2851 111.005 12.6925C111.894 12.0999 113.159 11.8036 114.8 11.8036C116.213 11.8036 117.501 12.1454 118.663 12.8292C119.848 13.513 120.794 14.5045 121.501 15.8037C122.23 17.0801 122.595 18.63 122.595 20.4534V20.9662C122.595 22.7896 122.242 24.3509 121.535 25.6501C120.828 26.9265 119.883 27.9066 118.697 28.5904C117.512 29.2742 116.213 29.6161 114.8 29.6161C113.706 29.6161 112.783 29.4793 112.03 29.2058C111.278 28.9323 110.674 28.5904 110.218 28.1801C109.763 27.7471 109.398 27.3026 109.124 26.8467H108.577V35.9752H105.056ZM113.774 26.539C115.324 26.539 116.589 26.049 117.569 25.0689C118.549 24.0888 119.039 22.6871 119.039 20.8637V20.556C119.039 18.7553 118.538 17.365 117.535 16.3849C116.555 15.4048 115.301 14.9148 113.774 14.9148C112.27 14.9148 111.016 15.4048 110.013 16.3849C109.033 17.365 108.543 18.7553 108.543 20.556V20.8637C108.543 22.6871 109.033 24.0888 110.013 25.0689C111.016 26.049 112.27 26.539 113.774 26.539Z" fill="#1e1a15"/>
<path d="M132.975 29.6161C131.266 29.6161 129.773 29.2628 128.497 28.5562C127.22 27.8268 126.217 26.8126 125.488 25.5134C124.782 24.1914 124.428 22.6643 124.428 20.932V20.5218C124.428 18.7667 124.782 17.2396 125.488 15.9404C126.195 14.6185 127.175 13.6042 128.428 12.8976C129.705 12.1682 131.175 11.8036 132.839 11.8036C134.457 11.8036 135.87 12.1682 137.078 12.8976C138.309 13.6042 139.266 14.5957 139.95 15.8721C140.634 17.1484 140.976 18.6414 140.976 20.3508V21.6842H128.018C128.064 23.1657 128.554 24.3509 129.488 25.2399C130.445 26.106 131.631 26.539 133.044 26.539C134.366 26.539 135.357 26.2427 136.018 25.6501C136.702 25.0575 137.226 24.3737 137.591 23.5988L140.497 25.1031C140.178 25.7413 139.711 26.4137 139.095 27.1203C138.503 27.8268 137.716 28.4194 136.736 28.8981C135.756 29.3767 134.503 29.6161 132.975 29.6161ZM128.052 18.9833H137.386C137.295 17.7069 136.839 16.7154 136.018 16.0088C135.198 15.2794 134.127 14.9148 132.805 14.9148C131.483 14.9148 130.4 15.2794 129.557 16.0088C128.736 16.7154 128.235 17.7069 128.052 18.9833Z" fill="#1e1a15"/>
<path d="M143.505 29.1374V12.2822H146.958V14.2652H147.505C147.779 13.5586 148.212 13.0458 148.804 12.7267C149.42 12.3848 150.172 12.2138 151.061 12.2138H153.078V15.3934H150.924C149.785 15.3934 148.85 15.7125 148.121 16.3507C147.391 16.9661 147.027 17.9234 147.027 19.2226V29.1374H143.505Z" fill="#1e1a15"/>
<path d="M51.0748 29.6934C49.4005 29.6934 47.8378 29.3809 46.3868 28.7558C44.958 28.1084 43.6967 27.2155 42.6028 26.077C41.5313 24.9384 40.6941 23.6101 40.0914 22.0921C39.4886 20.5518 39.1873 18.8998 39.1873 17.1362C39.1873 15.3726 39.4886 13.7318 40.0914 12.2137C40.6941 10.6957 41.5313 9.3786 42.6028 8.2624C43.6967 7.12388 44.958 6.24208 46.3868 5.61701C47.8378 4.96961 49.4005 4.64591 51.0748 4.64591C53.084 4.64591 54.9145 5.05891 56.5665 5.88489C58.2408 6.71088 59.6249 7.87173 60.7188 9.36744C61.835 10.8631 62.5382 12.6044 62.8284 14.5913H58.9105C58.6873 13.2965 58.2073 12.1468 57.4706 11.1422C56.7339 10.1376 55.8186 9.35628 54.7248 8.79818C53.6532 8.24008 52.4477 7.96103 51.1083 7.96103C49.9251 7.96103 48.8312 8.18427 47.8266 8.63075C46.8444 9.07723 45.9849 9.71346 45.2482 10.5394C44.5339 11.3654 43.9758 12.3365 43.5739 13.4527C43.1944 14.5689 43.0047 15.7968 43.0047 17.1362C43.0047 18.4756 43.1944 19.7146 43.5739 20.8531C43.9758 21.9693 44.5339 22.9404 45.2482 23.7664C45.9849 24.5924 46.8444 25.2398 47.8266 25.7086C48.8312 26.1551 49.9251 26.3783 51.1083 26.3783C52.4477 26.3783 53.6644 26.0993 54.7583 25.5412C55.8521 24.9608 56.7563 24.1682 57.4706 23.1637C58.2073 22.1591 58.6873 21.0094 58.9105 19.7146H62.8284C62.5382 21.7014 61.835 23.4427 60.7188 24.9384C59.6249 26.4341 58.2408 27.6061 56.5665 28.4545C54.9145 29.2804 53.084 29.6934 51.0748 29.6934Z" fill="#1e1a15"/>
<path fill-rule="evenodd" clip-rule="evenodd" d="M74.2336 11.7158C79.198 11.7158 83.2224 15.7402 83.2224 20.7046C83.2224 25.669 79.198 29.6934 74.2336 29.6934C69.2692 29.6934 65.2448 25.669 65.2448 20.7046C65.2448 15.7402 69.2692 11.7158 74.2336 11.7158ZM74.2336 14.9477C71.0542 14.9477 68.4767 17.5252 68.4767 20.7046C68.4767 23.8841 71.0542 26.4615 74.2336 26.4615C77.413 26.4615 79.9905 23.8841 79.9905 20.7046C79.9905 17.5252 77.413 14.9477 74.2336 14.9477Z" fill="#1e1a15"/>
<path fill-rule="evenodd" clip-rule="evenodd" d="M93.6252 11.7158C98.5896 11.7158 102.614 15.7402 102.614 20.7046C102.614 25.669 98.5896 29.6934 93.6252 29.6934C88.6608 29.6934 84.6364 25.669 84.6364 20.7046C84.6364 15.7402 88.6608 11.7158 93.6252 11.7158ZM93.6252 14.9477C90.4458 14.9477 87.8684 17.5252 87.8684 20.7046C87.8684 23.8841 90.4458 26.4615 93.6252 26.4615C96.8047 26.4615 99.3821 23.8841 99.3821 20.7046C99.3821 17.5252 96.8047 14.9477 93.6252 14.9477Z" fill="#1e1a15"/>
</svg>
