<svg preserveAspectRatio="none" width="100%" height="100%" overflow="visible" style="display: block;" viewBox="0 0 29.4071 29.4071" fill="none" xmlns="http://www.w3.org/2000/svg">
<g id="FileText">
<rect width="29.4071" height="29.4071" rx="3.79447" fill="var(--fill-0, #EDE7D9)"/>
<path id="Vector" opacity="0.7" d="M21.1443 11.2704L16.9337 7.05982C16.8778 7.00398 16.8114 6.9597 16.7384 6.92951C16.6654 6.89932 16.5871 6.88382 16.5081 6.88388H9.29003C8.97097 6.88388 8.66498 7.01062 8.43937 7.23623C8.21376 7.46184 8.08701 7.76784 8.08701 8.08689V21.3201C8.08701 21.6391 8.21376 21.9451 8.43937 22.1707C8.66498 22.3963 8.97097 22.5231 9.29003 22.5231H20.1172C20.4362 22.5231 20.7422 22.3963 20.9678 22.1707C21.1934 21.9451 21.3202 21.6391 21.3202 21.3201V11.6959C21.3203 11.6169 21.3047 11.5387 21.2746 11.4657C21.2444 11.3926 21.2001 11.3263 21.1443 11.2704ZM17.1096 18.3125H12.2976C12.138 18.3125 11.985 18.2492 11.8722 18.1364C11.7594 18.0236 11.6961 17.8706 11.6961 17.711C11.6961 17.5515 11.7594 17.3985 11.8722 17.2857C11.985 17.1729 12.138 17.1095 12.2976 17.1095H17.1096C17.2692 17.1095 17.4222 17.1729 17.535 17.2857C17.6478 17.3985 17.7111 17.5515 17.7111 17.711C17.7111 17.8706 17.6478 18.0236 17.535 18.1364C17.4222 18.2492 17.2692 18.3125 17.1096 18.3125ZM17.1096 15.9065H12.2976C12.138 15.9065 11.985 15.8431 11.8722 15.7303C11.7594 15.6175 11.6961 15.4645 11.6961 15.305C11.6961 15.1455 11.7594 14.9925 11.8722 14.8797C11.985 14.7669 12.138 14.7035 12.2976 14.7035H17.1096C17.2692 14.7035 17.4222 14.7669 17.535 14.8797C17.6478 14.9925 17.7111 15.1455 17.7111 15.305C17.7111 15.4645 17.6478 15.6175 17.535 15.7303C17.4222 15.8431 17.2692 15.9065 17.1096 15.9065ZM16.5081 11.6959V8.38765L19.8164 11.6959H16.5081Z" fill="var(--fill-0, black)"/>
</g>
</svg>
