<?xml version="1.0" encoding="utf-8"?>
<!-- Generator: Adobe Illustrator 26.0.3, SVG Export Plug-In . SVG Version: 6.00 Build 0)  -->
<svg version="1.0" id="katman_1" xmlns="http://www.w3.org/2000/svg" xmlns:xlink="http://www.w3.org/1999/xlink" x="0px" y="0px"
	 viewBox="92.6 70.9 614.3 457.3" style="enable-background:new 0 0 800 600;" xml:space="preserve">
<style type="text/css">
	.st0{fill:#0043EC;}
</style>
<g id="Layer_2">
	<g id="Layer_1-2">
		<polygon class="st0" points="208.6,310.7 170.5,405 132.3,310.7 115.4,310.7 170.4,446.7 170.5,446.8 170.5,446.8 170.5,446.8 
			170.6,446.5 225.5,310.7 		"/>
		<polygon class="st0" points="399.8,178.4 399.8,178.4 399.8,178.4 399.8,178.3 436.9,93.7 420.8,93.7 399.8,145 378.8,93.7 
			362.8,93.7 399.8,178.3 		"/>
		<polygon class="st0" points="399.8,181 399.8,181 399.8,181 399.8,181.1 362.8,265.6 378.8,265.6 399.8,214.4 420.8,265.6 
			436.9,265.6 399.8,181.1 		"/>
		<polygon class="st0" points="398.5,179.7 398.5,179.7 398.5,179.7 398.4,179.7 313.8,142.6 313.8,158.7 365.2,179.7 313.8,200.7 
			313.8,216.7 398.4,179.7 		"/>
		<polygon class="st0" points="485.8,142.6 401.2,179.7 401.2,179.7 401.2,179.7 401.2,179.7 401.2,179.7 485.8,216.7 485.8,200.7 
			434.5,179.7 485.8,158.7 		"/>
		<path class="st0" d="M277.4,310.8h-13.5l0,0l0,0v0.3l-54,135.7h16.9l14.5-37.1h58.6l14.5,36.9h16.9L277.5,311L277.4,310.8z
			 M247.4,394.5l23.3-59.2l23.2,59.2H247.4z"/>
		<polygon class="st0" points="371.8,310.7 356.5,310.7 356.5,431.5 356.5,437.4 356.5,446.8 434,446.8 434,431.5 371.8,431.5 		"/>
		<path class="st0" d="M663.6,446.8h20.6l-37.4-56.2c21.8-4.5,35.9-25.8,31.4-47.7c-3.9-18.8-20.4-32.3-39.6-32.2h-39.3v136.1h15.3
			v-55.4h13.4L663.6,446.8z M614.7,326.1h24c13.8,0,24.9,11.1,24.9,24.9s-11.1,24.9-24.9,24.9h-24V326.1z"/>
		<path class="st0" d="M508.7,310.7c-36,0-65.5,30.4-65.5,68.2s29.3,68,65.5,68c36.2,0,65.5-30.5,65.5-68S544.8,310.7,508.7,310.7z
			 M508.7,432c-26.8,0-48.6-23.7-48.6-53s21.8-53,48.6-53c26.8,0,48.6,23.7,48.6,53S535.5,432,508.7,432z"/>
		<polygon points="204.7,504.1 216.3,504.1 216.3,502.5 207,502.5 207,495.2 215.4,495.2 215.4,493.6 207,493.6 207,486.3 
			216.3,486.3 216.3,484.7 204.7,484.7 		"/>
		<path d="M250.5,494.4c-0.1-5.4-4.5-9.6-9.9-9.5c-5.4,0.1-9.6,4.5-9.5,9.9c0.1,5.3,4.4,9.6,9.8,9.5c2.1,0,4.2-0.7,5.9-1.9l3.1,3.1
			l1.2-1.2l-3-3C249.7,499.4,250.6,496.9,250.5,494.4z M240.8,502.5c-4.5,0.3-8.4-3.2-8.7-7.7s3.2-8.4,7.7-8.7
			c4.5-0.3,8.4,3.2,8.7,7.7c0,0.2,0,0.3,0,0.5c0.1,2-0.6,3.9-1.8,5.5l-2.5-2.5l-1.2,1.2l2.5,2.5C244.2,502,242.5,502.5,240.8,502.5z
			"/>
		<polygon points="529.3,504.1 541,504.1 541,502.5 531.6,502.5 531.6,495.2 540,495.2 540,493.6 531.6,493.6 531.6,486.3 
			541,486.3 541,484.7 529.3,484.7 		"/>
		<path d="M584.3,489.6c0-1.9,1.5-3.5,3.4-3.5c0.2,0,0.5,0,0.7,0.1c1.9-0.2,3.7,1.1,4.1,3h2c-0.4-2.9-3.1-5-6-4.7
			c-3-0.3-5.6,1.8-6,4.7c0,0.1,0,0.3,0,0.5c0,7.3,10.3,3.7,10.3,9.4c-0.1,2-1.9,3.6-3.9,3.5c-0.1,0-0.2,0-0.2,0
			c-2.1,0.2-4.1-1.3-4.4-3.4h-2c0.2,3.1,3,5.5,6.1,5.2c0.1,0,0.2,0,0.3,0c3,0.3,5.7-1.9,6-4.9c0-0.1,0-0.2,0-0.4
			C594.6,491.8,584.3,495.2,584.3,489.6z"/>
		<path d="M278,497c0.2,3.1-2.1,5.8-5.1,6c-3.1,0.2-5.8-2.1-6-5.1c0-0.3,0-0.6,0-0.9v-12.2h-2.1v12.2c-0.3,3.8,2.5,7.1,6.3,7.4
			c0.5,0,1,0,1.5,0c3.8,0.5,7.2-2.1,7.8-5.8c0.1-0.5,0.1-1,0-1.6v-12.2h-2.1L278,497z"/>
		<rect x="297.2" y="484.8" width="2.1" height="19.4"/>
		<polygon points="314.5,486.3 320.2,486.3 320.2,504.1 322.2,504.1 322.2,486.3 327.8,486.3 327.8,484.7 314.5,484.7 		"/>
		<polygon points="469.5,486.3 475.2,486.3 475.2,504.1 477.2,504.1 477.2,486.3 482.9,486.3 482.9,484.7 469.5,484.7 		"/>
		<polygon points="510.6,501 499.3,484.7 497.3,484.7 497.3,504.1 499.3,504.1 499.3,487.8 510.6,504.1 512.6,504.1 512.6,484.7 
			510.6,484.7 		"/>
		<polygon points="347.7,494.8 342.4,484.7 340.1,484.7 346.7,496.6 346.7,504.1 348.7,504.1 348.7,496.6 355.3,484.7 353,484.7 		
			"/>
		<path d="M394.6,484.8H389v19.4h1.9v-8.3h3.7c4.3,0,6.3-2.4,6.3-5.5C400.9,487.2,398.9,484.8,394.6,484.8z M394.6,494.2h-3.7v-7.8
			h3.7c3.1,0,4.3,1.4,4.3,4C399,492.8,397.7,494.2,394.6,494.2z"/>
		<path d="M419.8,485l-7.5,19.1h2.2l1.8-4.6h9.4l1.8,4.6h2.2l-7.5-19.1H419.8z M416.9,497.9l4.1-10.3l4.1,10.3H416.9z"/>
		<path d="M452.4,495.9c0.6-0.1,1.2-0.2,1.8-0.4c2.1-0.8,3.5-2.8,3.4-5.1c0-3.2-2.2-5.6-6.9-5.6h-6.3v19.4h2.1V496h2.1l5.1,8.1h2.2
			l-5.3-8.2C450.9,495.9,451.7,495.9,452.4,495.9z M446.5,494.5v-8.1h4.2c3.4,0,4.9,1.5,4.9,4s-1.5,4.1-4.9,4.1L446.5,494.5z"/>
		<path d="M564.2,495.9c0.6-0.1,1.2-0.2,1.8-0.4c2.1-0.8,3.5-2.8,3.4-5.1c0-3.2-2.2-5.6-6.9-5.6h-6.2v19.4h2.1V496h2.1l5.1,8.1h2.2
			l-5.3-8.2C562.6,495.9,563.5,495.9,564.2,495.9z M558.2,494.5v-8.1h4.1c3.4,0,4.9,1.5,4.9,4s-1.5,4.1-4.9,4.1L558.2,494.5z"/>
	</g>
</g>
</svg>
